<svg width="75" height="80" viewBox="0 0 75 80" fill="none" xmlns="http://www.w3.org/2000/svg">
<path d="M68.2752 0H6.72477C3.14118 0 0.35667 3.12087 0.763575 6.68128L7.56803 66.2202C7.83174 68.5277 9.40343 70.4757 11.603 71.2214L35.5738 79.347C36.823 79.7705 38.177 79.7705 39.4262 79.347L63.397 71.2214C65.5966 70.4757 67.1683 68.5277 67.432 66.2202L74.2364 6.68128C74.6433 3.12086 71.8588 0 68.2752 0Z" fill="black"/>
<path d="M47.7991 13.5798C47.3695 13.8215 47.1823 14.0239 46.7197 14.7379C46.2956 15.3901 45.9431 15.7611 45.497 16.0254C44.803 16.4358 44.2963 16.9417 43.5748 17.9368C42.936 18.8139 42.8478 19.0612 43.0351 19.5054C43.1508 19.7977 43.6354 20.2925 44.0926 20.5904L44.5001 20.849L44.3459 20.9671C43.9163 21.2819 43.4977 21.9453 43.338 22.5581C43.2389 22.946 43.1838 23.6207 43.2279 23.8399C43.2884 24.1098 43.5198 24.3459 43.8227 24.4527C44.456 24.672 45.8825 24.4809 47.4577 23.9636L47.9754 23.8006L48.3168 23.9355C48.8621 24.1604 49.6552 24.3628 50.2555 24.4303C51.2248 24.5371 51.9794 24.3572 52.6072 23.8737C52.8936 23.6432 53.2296 23.244 53.3287 23.0079C53.3618 22.9123 53.7308 23.3115 54.0282 23.7725C54.8598 25.0599 55.2729 26.6678 55.1242 28.034C54.9645 29.4395 54.5955 30.3727 53.4664 32.183C51.737 34.949 50.0462 38.2885 48.6308 41.7461C48.3168 42.5106 48.2342 42.6624 48.1516 42.6512C47.9478 42.6118 46.9345 42.0778 46.4498 41.7461C46.1028 41.5155 45.7008 41.1501 45.1004 40.5317C44.1697 39.576 43.6905 39.1431 42.9139 38.5696C40.386 36.7144 37.6928 35.7136 34.57 35.4663L34.0853 35.4325L33.7714 34.9209C32.0806 32.183 29.817 29.9511 27.0467 28.2813C25.2457 27.1963 23.0151 26.263 21.1756 25.8245C20.779 25.7346 20.2834 25.6053 20.0686 25.5378C19.4682 25.3579 18.6256 25.3354 18.0969 25.4872C17.2873 25.7121 16.5823 26.1562 15.9104 26.8477C14.3738 28.4444 13.0685 31.4016 12.738 34.0495C12.6168 35.0446 12.6554 36.7481 12.8206 37.7207C13.1621 39.6884 13.8946 41.5999 14.9245 43.2022C15.5414 44.1635 16.015 44.7594 16.72 45.4566C17.3919 46.1144 17.9812 46.5529 18.5705 46.8283C19.1543 47.0982 19.4958 47.16 20.0465 47.0757C20.6469 46.9858 21.7704 47.042 22.2441 47.1825C23.1363 47.4524 24.0175 48.127 24.3535 48.7961C24.5407 49.1783 25.2622 50.0947 25.9782 50.8537C27.7351 52.7258 29.9932 54.1651 32.2788 54.8734C34.234 55.475 35.9193 55.6943 39.4827 55.7955C40.5897 55.8236 41.7298 55.8798 42.0162 55.9079C42.3026 55.9416 43.3931 56.144 44.4395 56.3577C47.5017 56.9873 51.368 57.6395 53.9621 57.9656C55.0361 58.1005 56.1045 58.0555 56.6828 57.8587C57.1675 57.6845 57.4319 57.5327 57.7293 57.2291C58.1809 56.7793 58.3737 56.3239 58.5995 55.1602C58.8473 53.8896 59.332 52.4504 59.9213 51.2697C60.6262 49.8361 61.0173 48.5374 61.2927 46.7047C61.7608 43.5844 61.7994 40.0426 61.4579 32.6047C61.2596 28.3544 61.2266 26.7184 61.2982 25.2679C61.3698 23.8118 61.3422 22.6931 61.21 21.9228C60.8025 19.4998 59.5082 17.6332 57.498 16.5651C56.7434 16.1603 56.4075 16.0366 55.1022 15.6487C53.7087 15.2383 51.5333 14.5411 49.6166 13.8834C48.8456 13.6191 48.1902 13.4055 48.1571 13.4055C48.1296 13.4055 47.9644 13.4842 47.7991 13.5798Z" fill="white"/>
</svg>
